<svg xmlns="http://www.w3.org/2000/svg" viewBox="0 0 24 24"><defs><style>.cls-1{fill:#fff;}</style></defs><title>logo_instagram</title><g id="Layer_2" data-name="Layer 2"><path class="cls-1" d="M20.57,12.23q0,2.56-.06,3.54a5.23,5.23,0,0,1-1.38,3.59,5.24,5.24,0,0,1-3.59,1.38q-1,.06-3.54.06t-3.54-.06a5.23,5.23,0,0,1-3.59-1.38,5.23,5.23,0,0,1-1.38-3.59q-.06-1-.06-3.54t.06-3.54A5.23,5.23,0,0,1,4.87,5.1,5.24,5.24,0,0,1,8.46,3.71q1-.06,3.54-.06t3.54.06A5.24,5.24,0,0,1,19.13,5.1a5.23,5.23,0,0,1,1.38,3.59Q20.57,9.67,20.57,12.23Zm-7.72-7H10l-1.08,0a8.87,8.87,0,0,0-1.15.11,4.44,4.44,0,0,0-.8.21A2.92,2.92,0,0,0,5.31,7.17a4.45,4.45,0,0,0-.21.8A8.87,8.87,0,0,0,5,9.12Q5,9.8,5,10.2t0,1.18q0,.78,0,.85t0,.85q0,.78,0,1.18t0,1.08a8.85,8.85,0,0,0,.11,1.15,4.45,4.45,0,0,0,.21.8,2.92,2.92,0,0,0,1.63,1.63,4.48,4.48,0,0,0,.8.21,8.87,8.87,0,0,0,1.15.11l1.08,0H14l1.08,0a8.87,8.87,0,0,0,1.15-.11,4.5,4.5,0,0,0,.8-.21,2.92,2.92,0,0,0,1.63-1.63,4.53,4.53,0,0,0,.21-.8A8.86,8.86,0,0,0,19,15.34q0-.68,0-1.08t0-1.18q0-.78,0-.85t0-.85q0-.78,0-1.18t0-1.08A8.87,8.87,0,0,0,18.89,8a4.54,4.54,0,0,0-.21-.8,2.92,2.92,0,0,0-1.63-1.63,4.46,4.46,0,0,0-.8-.21,8.87,8.87,0,0,0-1.15-.11L14,5.19Zm2.26,3.92a4.24,4.24,0,0,1,1.28,3.11,4.38,4.38,0,0,1-4.4,4.4,4.38,4.38,0,0,1-4.4-4.4A4.38,4.38,0,0,1,12,7.83,4.24,4.24,0,0,1,15.11,9.11ZM14,14.25a2.86,2.86,0,0,0,0-4,2.86,2.86,0,0,0-4,0,2.86,2.86,0,0,0,0,4,2.86,2.86,0,0,0,4,0ZM17.3,6.93a1,1,0,1,1-.73-.3A1,1,0,0,1,17.3,6.93Z"/></g></svg>