<?xml version="1.0" encoding="utf-8"?>
<!-- Generator: Adobe Illustrator 22.0.1, SVG Export Plug-In . SVG Version: 6.00 Build 0)  -->
<svg version="1.1" id="Layer_1" xmlns="http://www.w3.org/2000/svg" xmlns:xlink="http://www.w3.org/1999/xlink" x="0px" y="0px"
	 viewBox="0 0 598 133.5" style="enable-background:new 0 0 598 133.5;" xml:space="preserve">
<style type="text/css">
	.st0{fill:#FFFFFF;}
</style>
<g>
	<path id="ytp-id-9" class="st0" d="M85.5,0C68,0.2,31.7,1,20.4,3.9C12.1,6.1,6,12.8,3.8,20.6C-0.1,35.6,0,66.8,0,66.8
		S-0.1,98,3.8,113c2.2,8.3,8.8,14.5,16.6,16.7c15,3.9,74.6,3.8,74.6,3.8s59.5,0.1,74.6-3.8c8.3-2.2,14.4-8.9,16.6-16.7
		c3.8-15,3.8-46.2,3.8-46.2s0.6-31.2-3.8-46.2c-2.2-8.3-8.8-14.5-16.6-16.7C154.6,0,95,0,95,0S91.3,0,85.5,0L85.5,0z M487.2,5v118.4
		h15.5l1.7-7.6h0.5c1.7,2.8,4,4.9,6.7,6.6c2.8,1.7,6,2.2,9.3,2.2c6.1,0,11.1-2.7,13.9-8.8s4.5-15,4.5-27.3V75.1
		c0-8.9-0.6-16.1-1.7-21.7c-1.1-5-2.8-8.8-5.6-11.6c-2.8-2.2-6.1-3.3-10.6-3.3c-3.3,0-6.6,1.1-9.3,2.7c-2.7,1.7-5.6,4.5-6.7,7.8v-44
		L487.2,5L487.2,5z M209.1,9.4l21.7,77.3l1,37.3h18.4V86.7l21.5-77.3H253l-7.8,35.1c-2.2,10.5-4,17.7-4.5,22.2h-0.5
		c-1.1-6.1-2.8-13.4-4.5-22.2l-7.6-35.1L209.1,9.4L209.1,9.4z M373.7,9.4v15.1h18.9V124h18.2V24.4h18.9c0,0,0-15.1-0.5-15.1
		L373.7,9.4L373.7,9.4z M76.1,37.9l49.5,28.8L76.1,95V37.9L76.1,37.9z M573.5,38.4c-9.5,0-16.1,3.3-20,8.8
		c-3.8,5.5-5.5,14.5-5.5,27.3v14.4c0,12.2,1.7,21.7,5.5,27.3c3.9,6.1,10,8.8,19.5,8.8c7.8,0,13.2-1.7,17.7-5.6
		c3.9-3.9,6.1-9.4,6.1-17.2v-2.8l-16.1-1.2c0,5.6-0.4,8.9-1.6,11.1c-0.6,2.2-2.8,3.4-5.6,3.4c-1.7,0-3.4-0.6-4.5-1.7
		c-1.1-1.7-1.7-3.3-2.2-6.1c-0.6-2.8-0.5-6.7-0.5-12.3v-4.3l31.8-0.5V73.4c0-8.9-0.6-15.5-2.2-20.5c-1.1-5-4-8.8-7.3-11.1
		c-3.9-2.2-8.2-3.3-14.9-3.3L573.5,38.4z M292.6,38.9c-6.1,0-11.2,1-15.1,3.8c-3.9,2.2-6.7,6.2-8.3,11.8c-1.7,5.6-2.8,12.6-2.8,21.5
		v12.3c0,8.3,0.6,15.5,2.2,21c1.1,5,3.9,9,7.8,11.8c3.8,2.8,9.5,3.8,15.6,4.3c6.6,0,11.6-1.6,15.5-3.8c3.8-2.2,6.1-6.1,8.3-11.6
		c2.2-5.6,2.7-12.8,2.7-21.7V76c0-8.9-1.1-16-2.7-21.5c-1.7-5-4.5-9-8.3-11.8C303.7,39.9,298.8,38.9,292.6,38.9L292.6,38.9z
		 M360.4,39.4v66.2c-0.6,1.7-1.6,2.7-3.3,3.8c-1.1,1.1-2.8,1.7-4.5,1.7c-1.7,0-3.2-0.6-3.8-2.2c-0.6-1.7-1-3.9-1-7.8V39.9h-18.9
		v62.4c0,7.8,1,13.3,3.8,17.2c2.7,3.9,6.7,5.6,12.3,5.6c7.8,0,13.8-3.8,17.7-11.6h0.5l1.7,9.9h14.4V39.9
		C379.3,39.9,360.4,39.9,360.4,39.4L360.4,39.4z M456.7,39.4v66.2c-0.6,1.7-1.6,2.7-3.3,3.8c-1.1,1.1-2.8,1.7-4.5,1.7
		c-1.7,0-3.2-0.6-3.8-2.2c-0.6-1.7-1.2-3.9-1.2-7.8V39.9H425v62.4c0,7.8,1.2,13.3,4,17.2c2.8,3.9,6.6,5.6,12.1,5.6
		c7.7,0,14-3.8,17.9-11.6h0.5l1.6,9.9h14.6V39.9C475.6,39.9,456.7,39.9,456.7,39.4L456.7,39.4z M572.9,51c2.2,0,3.2,0.6,4.3,1.7
		c1.1,1.7,1.7,3.3,2.2,6.1c0.6,2.8,0.5,6.7,0.5,12.3v6.1h-13.9v-6.1c0-5.6,0-9.5,0.5-12.3c0-2.2,0.6-4.5,1.7-5.6
		c1.1-1.7,2.8-2.2,4.5-2.2L572.9,51z M292,51.7c2.8,0,4.5,1,5.6,3.8c1.1,2.8,1.6,7.2,1.6,13.4v26c0,6.1-0.4,10.6-1.6,13.4
		c-1.1,2.8-2.8,3.8-5.6,3.8s-4.4-1-5.5-3.8c-1.1-2.8-1.7-7.2-1.7-13.4v-26c0-6.1,0.6-10.6,1.7-13.4S289.3,51.7,292,51.7z
		 M512.8,52.2c1.7,0,3.4,0.6,4.5,2.2c1.1,1.7,1.5,3.7,2.1,7.6c0.6,3.3,0.7,8.4,0.7,15.1l0.5,10.6c0,6.1,0,11.1-0.5,14.4
		c-0.6,3.3-1.1,6-2.7,7.1c-1.1,1.7-2.8,2.2-5,2.2c-1.7,0-2.8-0.4-4.5-1c-1.1-0.6-2.2-1.6-3.3-3.3V59.8c0.6-2.2,1.6-3.9,3.3-5.6
		c1.7-1.7,3.3-2.2,5-2.2L512.8,52.2z"/>
</g>
</svg>
