<svg xmlns="http://www.w3.org/2000/svg" viewBox="0 0 24 24"><defs><style>.cls-1{fill:#fff;}</style></defs><title>logo_twitter</title><g id="Layer_2" data-name="Layer 2"><path class="cls-1" d="M20.79,6.78A7.55,7.55,0,0,1,19,8.65q0,.16,0,.47a10.25,10.25,0,0,1-.42,2.9,10.47,10.47,0,0,1-1.29,2.77,10.91,10.91,0,0,1-2.06,2.35,9.17,9.17,0,0,1-2.88,1.63,10.53,10.53,0,0,1-3.6.61,10,10,0,0,1-5.54-1.62,7.71,7.71,0,0,0,.87,0,7.06,7.06,0,0,0,4.48-1.54,3.61,3.61,0,0,1-3.37-2.5,4.58,4.58,0,0,0,.68.06,3.72,3.72,0,0,0,.95-.12,3.55,3.55,0,0,1-2.07-1.24,3.48,3.48,0,0,1-.82-2.29v0a3.58,3.58,0,0,0,1.63.46A3.6,3.6,0,0,1,4.38,9.28a3.61,3.61,0,0,1,.06-3.54A10.22,10.22,0,0,0,7.72,8.41a10,10,0,0,0,4.15,1.11,4,4,0,0,1-.09-.83,3.6,3.6,0,0,1,3.6-3.6A3.48,3.48,0,0,1,18,6.22a7.06,7.06,0,0,0,2.29-.87,3.5,3.5,0,0,1-1.58,2A7.18,7.18,0,0,0,20.79,6.78Z"/></g></svg>